<?xml version="1.0" encoding="utf-8"?>
<!-- Generator: Adobe Illustrator 16.0.0, SVG Export Plug-In . SVG Version: 6.00 Build 0)  -->
<!DOCTYPE svg PUBLIC "-//W3C//DTD SVG 1.1//EN" "http://www.w3.org/Graphics/SVG/1.1/DTD/svg11.dtd">
<svg version="1.1" id="Layer_1" xmlns="http://www.w3.org/2000/svg" xmlns:xlink="http://www.w3.org/1999/xlink" x="0px" y="0px"
	 width="750.933px" height="115.2px" viewBox="0 0 750.933 115.2" enable-background="new 0 0 750.933 115.2" xml:space="preserve">
<g>
	<path fill="#EB4A3B" d="M1.067,97.6L40,10.133c2.667-5.867,7.466-9.601,14.4-9.601H56c6.933,0,11.2,3.733,14.4,9.601L109.333,97.6
		c0.534,1.6,1.067,3.199,1.067,4.799c0,6.4-5.333,11.734-11.733,11.734c-5.867,0-9.6-3.201-11.733-8.533L79.467,88h-49.6l-8,18.133
		c-1.6,4.799-5.867,8-10.667,8c-6.4,0-11.2-5.334-11.2-11.201C0,100.799,0.533,99.2,1.067,97.6z M69.867,66.667L54.4,29.866
		l-15.467,36.8H69.867z"/>
	<path fill="#EB4A3B" d="M124.8,13.867c0-6.933,5.333-12.267,12.267-12.267h33.067C196.8,1.6,212.8,17.067,212.8,40v0.534
		c0,25.599-20.267,38.933-44.8,38.933h-18.667v21.867c0,6.935-5.333,12.267-12.267,12.267c-6.933,0-12.267-5.332-12.267-12.267
		L124.8,13.867z M169.067,58.133c12.267,0,19.2-7.468,19.2-17.066v-0.534c0-11.2-7.467-17.065-19.733-17.065h-18.667V57.6
		L169.067,58.133z"/>
	<path fill="#EB4A3B" d="M222.4,57.6L222.4,57.6c0-32,25.066-57.6,59.2-57.6c34.134,0,59.2,25.601,59.2,57.067V57.6
		c0,31.467-25.066,57.6-59.2,57.6C247.467,115.2,222.4,89.6,222.4,57.6z M314.667,57.6L314.667,57.6
		c0-19.201-13.867-35.201-33.6-35.201s-33.6,15.468-33.6,34.668V57.6c0,19.199,13.867,35.199,33.6,35.199
		C301.333,92.266,314.667,76.799,314.667,57.6z"/>
	<path fill="#EB4A3B" d="M359.467,13.333c0-6.934,5.333-12.268,12.267-12.268c6.934,0,12.268,5.334,12.268,12.268v88.533
		c0,6.934-5.332,12.268-12.268,12.268c-6.935,0-12.267-5.334-12.267-12.268V13.333z"/>
	<path fill="#EB4A3B" d="M401.601,97.6l38.934-87.467c2.668-5.867,7.467-9.601,14.4-9.601h1.6c6.934,0,11.199,3.733,14.4,9.601
		L509.867,97.6c0.533,1.6,1.066,3.199,1.066,4.799c0,6.4-5.334,11.734-11.732,11.734c-5.867,0-9.602-3.201-11.732-8.533l-8-17.6
		H430.4l-8,18.133c-2.133,4.799-6.398,7.467-11.197,7.467c-6.399,0-11.201-5.334-11.201-11.201
		C400.001,100.799,400.533,99.2,401.601,97.6z M470.4,66.667l-15.465-36.8l-15.467,36.8H470.4z"/>
	<path fill="#EB4A3B" d="M534.935,86.932c8,0,13.865,5.867,13.865,13.334v0.533c0,7.467-5.865,13.334-13.865,13.334
		s-13.867-5.867-13.867-13.334v-0.533C521.068,92.799,526.935,86.932,534.935,86.932z"/>
	<path fill="#EB4A3B" d="M631.468,60.266c2.666,8,1.066,24.533,1.066,29.334c2.133-1.6,4.799-3.201,7.467-4.268
		c2.666-1.066,5.865-2.666,8.533-4.269c3.199-1.601,5.865-3.198,9.062-4.799c3.201-1.603,6.4-3.733,9.604-6.399v22.399
		c-4.27,3.198-9.066,5.864-14.4,8.532c-5.332,2.666-11.199,4.8-17.066,6.935c-5.865,2.134-11.732,3.731-18.133,4.8
		c-5.867,1.065-11.732,1.602-17.066,1.602c-3.732,0-7.467-0.533-10.666-1.066s-6.4-1.602-9.066-3.201
		c-2.668-1.598-4.801-3.199-6.398-5.865c-1.6-2.666-2.666-5.334-2.666-8.533c-1.066,0-1.604,0.533-2.668,0.533s-1.602,0-2.666,0
		c-1.066,0-2.135,0-3.199,0c-1.066,0-1.604-0.533-2.135-0.533c-0.531-0.532-1.064-1.065-1.602-2.133
		c-0.533-1.067-0.533-2.135-0.533-4.268c0-1.6,0.533-3.201,1.066-4.268c0.533-1.603,1.6-2.666,2.668-3.732
		c1.064-1.066,2.133-2.135,3.199-2.668c1.066-1.064,1.6-1.6,2.133-2.133c3.732-3.199,6.934-5.867,9.066-8
		c2.135-2.133,4.801-4.799,6.934-7.467c2.133-2.666,4.268-5.333,5.334-6.934c1.6-1.6,3.199-3.732,4.799-6.4
		c1.604-2.666,4.27-5.332,6.936-9.066c2.668-3.733,5.865-8,10.135-13.334c1.064-1.066,1.6-2.133,2.666-3.732
		c1.064-1.066,2.135-2.133,3.73-3.199c1.604-1.066,2.668-1.601,4.27-2.134c1.602-0.532,3.199-1.065,5.334-1.065
		c3.199,0,5.865,0.533,7.467,1.065c1.6,0.534,3.199,1.601,3.732,2.667c0.531,1.066,1.064,2.133,1.602,3.2c0,1.067,0,2.133,0,2.667
		c0,1.6-0.533,3.199-2.135,5.333c-1.068,2.133-2.668,3.733-4.27,5.866c-1.6,1.6-3.199,3.199-4.268,4.8
		c-1.6,1.601-2.133,2.667-2.133,3.2c0,2.133,0,3.732,0.533,5.867c0.533,1.6,0.533,3.199,1.066,4.799
		C630.4,56.534,630.935,58.133,631.468,60.266 M610.134,59.733L582.4,88.534c0.535,0,1.602,0.533,2.668,1.6
		c1.066,1.068,2.135,2.136,3.199,3.201c1.066,1.064,2.668,2.133,4.268,3.199s3.732,1.6,5.865,1.6c2.668,0,4.803-0.532,6.4-1.065
		c1.6-1.063,3.201-2.133,4.268-3.198c1.066-1.601,1.602-3.199,2.135-4.802c0.531-2.133,2.133-10.133,1.6-18.133"/>
	<path fill="#EB4A3B" d="M686.933,113.067c-6.398,0-11.73-1.066-16-3.201c-4.799-2.133-8.533-5.332-11.73-9.064
		c-3.201-3.733-5.334-8.532-6.936-13.334c-1.6-5.334-2.133-10.666-2.133-16c0-3.733,0.533-8,2.133-13.334
		c1.602-5.332,2.666-9.599,4.268-13.332c1.6-3.734,3.199-7.468,5.334-11.201c2.133-3.732,4.801-6.934,8-9.6
		c3.199-2.667,6.398-4.8,10.133-6.4s8-2.666,12.268-2.666c3.732,0,6.936,0.533,10.135,1.6c3.197,1.067,5.865,2.667,8.531,4.8
		c2.135,2.134,4.27,4.8,5.334,8c1.066,3.2,2.135,6.399,2.135,10.134c0,4.266-1.602,8.532-4.27,13.332
		c-2.666,4.801-5.865,9.067-9.6,12.801c-3.734,3.732-8,6.934-12.801,9.6s-10.133,4.801-16,6.4c1.066,1.6,2.135,3.199,3.199,4.266
		c1.068,1.066,2.135,2.135,3.201,2.668s2.133,1.066,3.199,1.6c1.064,0,2.135,0.533,3.73,0.533c3.734,0,8-0.533,12.803-2.133
		c4.268-1.602,8.533-3.731,12.801-5.867c4.266-2.133,8-4.801,11.732-7.467c3.73-2.666,6.934-5.332,9.602-8L748.8,80
		c-5.867,6.397-12.266,11.729-18.666,16.531c-2.666,2.135-5.867,4.268-9.066,5.866c-3.199,2.134-6.934,3.731-10.135,5.332
		c-3.73,1.603-7.465,2.668-11.199,3.733C694.933,112.534,691.201,113.067,686.933,113.067z M673.601,66.133
		c2.133,0,4.799-0.533,8-1.602c2.666-1.064,5.332-2.666,8-4.802c2.666-2.133,4.799-4.266,6.934-7.465
		c2.133-3.201,3.732-5.867,3.732-8c0-2.668-0.533-5.334-1.6-6.934c-1.066-2.133-2.666-2.667-4.268-2.667
		c-2.666,0-5.334,0.533-7.469,1.601c-2.133,1.066-3.73,2.133-5.334,4.267c-1.6,1.601-2.666,3.733-3.197,5.866
		c-1.066,2.134-1.602,4.8-2.666,8c-1.066,3.199-1.604,5.865-1.604,7.468C673.601,62.934,673.601,64.534,673.601,66.133z"/>
	<circle fill="#EB4A3B" cx="741.867" cy="73.6" r="9.066"/>
</g>
</svg>
